<svg xmlns="http://www.w3.org/2000/svg" width="49.99" height="45.361" viewBox="0 0 49.99 45.361">
  <g id="Group_84" data-name="Group 84" transform="translate(1708.773 -7672.343)">
    <path id="Path_343" data-name="Path 343" d="M-1669.589,7717.706l-16.788-31.786c3.62-.542,6.876-3.174,6.876-6.752a6.654,6.654,0,0,0-3.852-5.9,8.6,8.6,0,0,0-3.665-.925l-4.733,0-17.022,0v4.633l20.527,0c2.161-.02,3.263.87,3.258,2.106-.007,1.543-1.479,2.329-3.878,2.291h-19.908V7686l.206,0h16.436l16.752,31.646Z" transform="translate(0 -0.001)"/>
    <rect id="Rectangle_603" data-name="Rectangle 603" width="4.368" height="4.368" transform="translate(-1663.151 7713.335)"/>
  </g>
</svg>
